<?xml version="1.0" standalone="no"?>
<!DOCTYPE svg PUBLIC "-//W3C//DTD SVG 20010904//EN"
 "http://www.w3.org/TR/2001/REC-SVG-20010904/DTD/svg10.dtd">
<svg version="1.0" xmlns="http://www.w3.org/2000/svg"
 width="1024.000000pt" height="1024.000000pt" viewBox="0 0 1024.000000 1024.000000"
 preserveAspectRatio="xMidYMid meet">

<g transform="translate(0.000000,1024.000000) scale(0.100000,-0.100000)"
fill="#000000" stroke="none">
<path d="M0 5120 l0 -5120 5120 0 5120 0 0 5120 0 5120 -5120 0 -5120 0 0
-5120z m3009 3403 c5 -21 12 -54 16 -73 3 -19 15 -56 27 -82 24 -54 68 -81
148 -92 94 -13 91 -35 -10 -68 -118 -37 -152 -77 -187 -216 -23 -91 -37 -78
-78 72 -23 82 -61 118 -153 145 -44 14 -72 27 -72 36 0 8 27 22 65 35 109 36
142 74 170 194 18 81 21 86 45 86 14 0 22 -11 29 -37z m2186 -43 c147 -28 219
-52 347 -115 149 -74 208 -115 322 -225 107 -104 194 -224 253 -351 27 -57 42
-78 53 -75 45 13 135 16 208 7 228 -29 424 -138 569 -317 193 -237 252 -538
158 -807 -13 -39 -22 -73 -20 -76 3 -2 39 -19 80 -37 117 -51 211 -118 331
-238 143 -144 231 -262 303 -411 66 -135 82 -180 111 -315 75 -350 -4 -728
-219 -1045 -152 -225 -336 -384 -586 -506 -114 -55 -310 -117 -384 -121 -58
-3 -58 5 -7 -123 l31 -79 70 -26 c135 -50 191 -94 235 -184 97 -197 1 -392
-218 -442 -42 -10 -85 -24 -94 -32 -9 -8 -27 -44 -39 -81 -71 -214 -182 -324
-329 -325 -162 0 -285 123 -329 328 l-17 81 -76 25 c-115 38 -203 115 -239
210 -30 79 -23 189 15 254 53 90 128 153 236 196 19 8 38 19 42 24 7 10 68
163 68 171 0 3 -354 -6 -358 -10 -1 -1 5 -33 14 -71 32 -136 -1 -308 -90 -479
-30 -57 -31 -65 -30 -170 3 -193 32 -326 88 -400 19 -25 42 -39 93 -55 165
-53 255 -164 255 -315 1 -120 -70 -238 -202 -335 -82 -60 -143 -91 -247 -124
-289 -91 -638 -39 -793 119 l-43 44 -31 -17 c-25 -14 -57 -17 -161 -17 -117 1
-137 4 -205 29 -172 65 -285 143 -337 235 l-26 48 -56 -14 c-76 -20 -196 -9
-298 26 -199 69 -386 231 -413 356 -6 29 -8 30 -73 37 -85 8 -125 21 -215 69
-188 100 -336 264 -442 493 -113 239 -104 427 23 524 100 76 138 85 252 57 33
-8 74 -14 91 -15 30 0 177 61 188 79 3 4 -25 20 -62 35 -215 84 -449 267 -586
459 -121 169 -214 394 -253 607 -20 114 -23 369 -5 480 33 200 142 436 282
611 89 113 266 271 371 333 46 27 86 50 88 52 1 1 -8 38 -22 81 -38 115 -47
173 -47 286 1 271 121 516 330 674 173 130 389 194 564 165 l58 -9 39 83 c84
184 243 365 427 490 137 92 353 179 507 203 39 6 81 13 95 15 54 10 251 -4
355 -24z m2634 -1503 c14 -43 62 -88 129 -122 28 -15 52 -31 52 -36 0 -4 -20
-20 -45 -35 -25 -14 -67 -51 -93 -81 l-49 -55 -47 50 c-26 27 -74 64 -107 82
-33 17 -57 36 -53 41 3 5 20 16 39 23 48 20 109 79 130 126 10 22 22 40 26 40
4 0 12 -15 18 -33z m-5486 -23 c62 -62 58 -124 -12 -171 -43 -29 -79 -29 -122
0 -60 41 -63 90 -9 165 26 37 35 42 68 42 31 0 46 -7 75 -36z m6077 -1615 c0
-5 16 -27 36 -48 27 -31 47 -43 90 -52 63 -14 89 -37 80 -73 -4 -18 -18 -29
-53 -41 -81 -28 -97 -39 -128 -88 -16 -25 -37 -47 -45 -47 -8 0 -28 22 -45 48
-24 37 -43 53 -92 77 -34 16 -65 36 -68 43 -11 30 27 66 98 92 15 5 36 24 45
41 25 46 49 69 67 63 8 -4 15 -10 15 -15z m-898 -1763 c11 -22 37 -46 78 -71
l61 -37 -38 -27 c-21 -16 -51 -47 -68 -69 -16 -23 -34 -41 -40 -41 -5 0 -22
19 -36 43 -19 31 -39 48 -73 62 -25 10 -46 22 -46 25 0 3 22 20 49 36 33 21
54 43 67 71 10 23 22 42 25 42 3 0 13 -15 21 -34z m-231 -1153 c40 -67 88
-120 134 -149 25 -16 45 -34 45 -40 0 -6 -27 -35 -61 -64 -34 -29 -74 -75 -91
-101 -50 -82 -94 -79 -156 10 -26 37 -61 71 -92 90 -28 17 -53 38 -56 46 -9
23 22 62 64 84 21 11 56 41 77 68 44 55 85 93 102 93 6 0 21 -17 34 -37z"/>
<path d="M4767 8274 c-220 -40 -466 -182 -624 -361 -104 -117 -170 -243 -209
-396 -14 -56 -20 -67 -33 -61 -94 40 -130 48 -246 48 -92 1 -135 -4 -185 -18
-81 -25 -223 -119 -285 -189 -52 -60 -117 -186 -136 -267 -20 -78 -17 -251 5
-324 23 -78 80 -190 122 -243 l34 -41 -37 -12 c-65 -21 -224 -103 -315 -163
-102 -68 -244 -213 -324 -333 -153 -229 -224 -549 -180 -807 80 -471 407 -866
831 -1003 78 -25 135 -37 200 -41 49 -3 96 -9 103 -12 19 -11 -93 -147 -175
-213 -192 -155 -420 -228 -578 -186 -44 12 -46 11 -73 -15 -24 -25 -27 -34
-26 -95 2 -83 44 -187 129 -319 77 -117 166 -203 263 -250 74 -37 79 -38 188
-38 l112 0 6 -47 c12 -88 138 -239 261 -313 136 -82 305 -99 415 -42 46 24 51
25 56 9 29 -86 45 -113 104 -172 70 -70 174 -130 270 -155 103 -28 285 -15
358 24 21 11 29 7 87 -46 113 -104 220 -143 396 -143 135 0 224 22 358 89 155
78 206 134 199 217 -3 42 0 40 -130 98 -140 62 -229 174 -278 346 -30 107 -42
263 -30 395 9 102 13 116 55 197 74 142 91 260 60 408 -19 91 -34 120 -101
188 -30 31 -54 57 -54 59 0 2 299 3 664 3 714 0 717 0 871 53 242 83 453 244
595 452 95 140 154 265 192 410 30 113 32 130 32 300 0 209 -12 272 -91 453
-64 145 -129 239 -247 357 -150 149 -311 249 -507 316 -52 17 -95 33 -97 34
-2 1 15 28 37 60 49 69 95 179 111 263 17 84 8 240 -19 322 -59 185 -210 338
-402 407 -66 23 -88 26 -204 26 -110 0 -139 -3 -190 -22 -89 -33 -85 -35 -106
49 -38 161 -123 303 -263 438 -103 99 -177 152 -301 213 -196 95 -455 132
-668 93z m414 -193 c80 -20 217 -85 316 -148 122 -77 239 -221 296 -364 25
-62 57 -207 57 -256 0 -13 -22 -58 -50 -100 -39 -60 -48 -81 -44 -102 10 -40
22 -49 69 -57 65 -9 94 9 132 86 39 78 95 131 171 162 47 18 77 22 167 23 105
0 113 -2 180 -34 87 -42 190 -142 229 -222 20 -41 28 -77 33 -140 14 -200 -82
-381 -248 -464 -114 -58 -17 -55 -1510 -55 -1374 0 -1379 0 -1441 21 -82 27
-139 62 -193 115 -171 171 -166 507 10 673 198 187 514 134 634 -106 l31 -63
66 0 c56 0 68 3 89 25 42 41 32 77 -43 159 l-45 48 7 82 c8 101 52 246 99 323
108 177 309 326 522 386 120 35 131 36 270 32 78 -2 147 -11 196 -24z m1559
-1856 c85 -4 213 -51 321 -117 108 -66 279 -236 336 -333 109 -187 156 -389
134 -571 -12 -101 -69 -330 -97 -390 -59 -128 -200 -294 -339 -399 -80 -61
-222 -130 -318 -154 -74 -19 -114 -20 -812 -22 -404 0 -738 2 -743 5 -5 3 9
42 31 87 26 53 42 99 45 133 3 45 1 54 -22 75 -14 14 -26 29 -26 34 0 5 24 46
54 90 30 45 72 116 95 157 l40 75 148 -6 c261 -12 848 -10 905 2 130 28 247
119 288 226 31 81 32 189 1 260 -30 67 -103 136 -189 176 l-67 32 -347 3
c-207 2 -348 7 -348 12 0 5 15 33 34 62 18 29 48 82 66 118 18 35 59 111 92
167 32 57 77 141 100 188 l40 85 107 1 c58 1 138 5 176 9 39 4 106 6 150 3 44
-2 109 -6 145 -8z m-1512 -7 c111 -1 202 -5 202 -10 0 -10 -167 -326 -190
-358 -10 -14 -30 -50 -45 -80 -52 -106 -119 -200 -137 -194 -9 3 -349 5 -755
6 -711 1 -740 0 -799 -19 -163 -53 -253 -177 -242 -333 12 -164 123 -287 303
-335 50 -13 115 -16 380 -15 176 1 421 5 545 9 124 4 226 7 228 6 2 -1 -5 -21
-14 -44 l-16 -41 -49 6 c-45 6 -50 5 -79 -27 -17 -19 -56 -85 -87 -146 -31
-62 -58 -113 -59 -113 -2 0 -27 9 -56 21 -109 44 -150 52 -229 46 -208 -16
-383 -128 -471 -301 l-30 -58 -141 4 c-131 4 -150 8 -255 43 -191 64 -387 210
-504 375 -72 102 -113 194 -155 345 -36 135 -38 146 -37 290 1 174 18 251 84
392 134 285 359 480 609 527 58 11 866 12 1999 4z m752 6 c0 -10 -89 -171
-128 -233 -19 -29 -71 -124 -117 -210 -45 -86 -110 -208 -145 -271 -34 -63
-85 -158 -112 -210 -28 -52 -85 -156 -128 -230 -134 -236 -188 -334 -206 -372
-10 -21 -21 -38 -24 -38 -4 0 -59 23 -123 50 -64 28 -121 50 -127 50 -5 0 -10
3 -10 8 0 12 253 512 292 577 110 184 246 424 264 466 20 45 186 353 206 381
19 27 20 27 151 31 73 1 149 4 170 5 20 1 37 -1 37 -4z m-1650 -833 c582 -6
625 -7 628 -23 3 -17 -126 -255 -155 -288 -13 -15 -183 -20 -1129 -34 -63 -1
-77 3 -120 29 -69 43 -96 93 -92 170 4 66 23 102 72 130 32 20 121 36 151 28
11 -3 301 -8 645 -12z m2187 -13 c18 -10 45 -35 60 -55 24 -31 28 -46 28 -99
0 -60 -2 -65 -39 -103 -27 -28 -52 -43 -80 -48 -23 -4 -238 -7 -478 -5 -377 3
-438 6 -438 18 0 8 22 52 49 97 27 45 61 110 76 144 l27 62 72 4 c39 2 211 3
381 3 275 -1 314 -3 342 -18z m-1670 -807 c62 -24 200 -94 226 -113 18 -13 17
-18 -18 -93 -19 -43 -37 -80 -39 -82 -3 -3 -416 173 -424 182 -4 3 13 44 38
89 l44 84 61 -23 c33 -13 83 -32 112 -44z m-522 -199 c56 -22 193 -84 305
-137 113 -54 258 -119 324 -146 146 -60 196 -89 265 -153 78 -73 101 -129 101
-241 0 -109 -9 -165 -25 -165 -7 0 -63 25 -126 56 -63 31 -190 91 -284 134
-668 305 -1043 486 -1052 508 -7 17 55 91 106 127 114 78 224 83 386 17z
m-461 -382 c87 -37 126 -59 126 -70 0 -16 -173 -325 -241 -430 -57 -87 -123
-159 -201 -218 -40 -30 -91 -70 -114 -88 -62 -51 -102 -64 -201 -64 -63 0 -99
6 -128 19 -70 31 -225 217 -249 298 -6 19 -2 22 46 28 155 20 328 93 470 200
85 64 259 247 323 341 17 24 33 42 36 41 4 -1 63 -27 133 -57z m359 -174 c40
-19 89 -41 110 -50 22 -9 37 -22 37 -32 0 -17 -141 -463 -191 -604 -17 -47
-51 -132 -77 -190 -94 -215 -157 -269 -286 -248 -131 20 -279 138 -331 262
l-15 35 98 75 c195 149 308 297 522 689 29 53 55 97 57 97 3 0 37 -15 76 -34z
m551 -256 c5 -5 -9 -97 -32 -217 -23 -114 -47 -264 -53 -333 -19 -202 2 -459
46 -564 19 -46 20 -43 -17 -54 -143 -44 -308 0 -425 114 -51 48 -53 52 -53
105 0 121 19 217 79 395 32 98 91 278 130 400 39 121 78 230 86 241 15 22 15
22 123 -29 59 -27 111 -54 116 -58z m316 -143 l125 -62 -2 -45 c-2 -25 -4
-121 -5 -215 -2 -148 0 -181 20 -258 27 -109 64 -202 110 -282 35 -59 149
-182 207 -223 16 -11 27 -23 23 -27 -3 -3 -50 -20 -105 -36 -88 -27 -109 -30
-203 -27 -94 3 -112 7 -171 36 -114 55 -153 115 -199 304 -45 186 -41 382 16
688 30 160 42 210 52 209 4 0 63 -28 132 -62z"/>
<path d="M4875 7537 c-134 -44 -214 -147 -223 -285 -4 -66 -2 -78 27 -136 56
-114 161 -180 286 -180 86 0 149 27 215 94 154 154 116 377 -82 485 -60 33
-159 43 -223 22z"/>
<path d="M3555 7019 c-47 -42 -65 -78 -65 -134 0 -115 99 -183 203 -137 60 27
90 71 95 144 4 56 3 59 -35 97 -66 66 -143 78 -198 30z"/>
<path d="M6265 7036 c-110 -49 -127 -187 -34 -270 33 -30 46 -36 85 -36 65 0
107 29 140 95 21 44 25 63 19 92 -18 99 -122 158 -210 119z"/>
<path d="M7089 5357 c-91 -61 -90 -208 3 -262 46 -27 128 -27 165 1 71 53 91
129 53 203 -40 79 -148 107 -221 58z"/>
<path d="M2847 5376 c-51 -19 -76 -42 -99 -93 -22 -49 -14 -100 23 -147 65
-82 195 -72 258 20 50 73 19 178 -63 215 -48 22 -68 23 -119 5z"/>
<path d="M3262 4883 c-5 -10 -17 -44 -26 -75 -19 -68 -37 -82 -121 -97 -100
-19 -103 -51 -5 -70 71 -14 101 -38 131 -106 11 -24 24 -47 28 -50 19 -11 41
9 57 53 24 66 37 78 115 107 96 37 93 61 -11 80 l-55 10 -40 79 c-42 84 -58
99 -73 69z"/>
<path d="M6311 3879 c-26 -24 -37 -50 -58 -134 -24 -94 -75 -196 -117 -233
-39 -34 -127 -81 -188 -101 -45 -15 -88 -63 -88 -99 0 -30 27 -76 57 -97 10
-7 48 -23 84 -35 81 -27 160 -80 193 -130 14 -22 39 -85 56 -142 41 -144 69
-175 137 -156 37 10 60 46 87 136 22 74 72 171 109 210 42 45 92 69 180 89 90
20 127 52 127 110 0 57 -20 77 -112 113 -189 76 -265 159 -303 335 -25 115
-53 154 -111 155 -17 0 -40 -9 -53 -21z m157 -468 c29 -30 70 -60 106 -77 l59
-27 -71 -34 c-61 -29 -78 -42 -115 -96 -48 -69 -67 -108 -67 -137 0 -11 -4
-20 -10 -20 -5 0 -10 7 -10 15 0 31 -53 132 -88 169 -37 38 -122 86 -154 86
-36 0 -27 21 19 41 98 42 174 126 209 232 l17 50 29 -76 c20 -52 44 -91 76
-126z"/>
</g>
</svg>
